<?xml version="1.0" encoding="UTF-8"?>
<svg version="1.1" viewBox="0 0 129 96" xmlns="http://www.w3.org/2000/svg" xmlns:xlink="http://www.w3.org/1999/xlink">
<title>Add A Business Illustration</title>
<defs>
<polygon id="ac" points="0 68 68 68 68 0 0 0"/>
<polygon id="r" points="0 68 68 68 68 0 0 0"/>
<polygon id="g" points="0 68 68 68 68 0 0 0"/>
<polygon id="b" points="0 68 68 68 68 0 0 0"/>
<polygon id="a" points="0 68 68 68 68 0 0 0"/>
<polygon id="ab" points="0 68 68 68 68 0 0 0"/>
<polygon id="aa" points="0 68 68 68 68 0 0 0"/>
<polygon id="z" points="0 68 68 68 68 0 0 0"/>
<polygon id="y" points="0 68 68 68 68 0 0 0"/>
<polygon id="x" points="0 68 68 68 68 0 0 0"/>
<polygon id="w" points="0 68 68 68 68 0 0 0"/>
<polygon id="v" points="0 68 68 68 68 0 0 0"/>
<polygon id="u" points="0 68 68 68 68 0 0 0"/>
<polygon id="t" points="0 68 68 68 68 0 0 0"/>
<polygon id="s" points="0 68 68 68 68 0 0 0"/>
<polygon id="q" points="0 68 68 68 68 0 0 0"/>
<polygon id="p" points="0 68 68 68 68 0 0 0"/>
<polygon id="o" points="0 68 68 68 68 0 0 0"/>
<polygon id="n" points="0 68 68 68 68 0 0 0"/>
<polygon id="m" points="0 68 68 68 68 0 0 0"/>
<polygon id="l" points="0 68 68 68 68 0 0 0"/>
<polygon id="k" points="0 68 68 68 68 0 0 0"/>
<polygon id="j" points="0 68 68 68 68 0 0 0"/>
<polygon id="i" points="0 68 68 68 68 0 0 0"/>
<polygon id="h" points="0 68 68 68 68 0 0 0"/>
<polygon id="f" points="0 68 68 68 68 0 0 0"/>
<polygon id="e" points="0 68 68 68 68 0 0 0"/>
<polygon id="d" points="0 68 68 68 68 0 0 0"/>
<polygon id="c" points="0 68 68 68 68 0 0 0"/>
</defs>
<g fill="none" fill-rule="evenodd">
<rect width="129" height="60" fill="#C5E8F3" fill-rule="nonzero"/>
<g transform="translate(12 9.685)" fill-rule="nonzero">
<path d="m23.135 6.7966c-0.12 0-0.238 8e-3 -0.355 0.021l1e-3 -0.021c0.073-1.693-0.633-3.342-1.868-4.122-2.169-1.37-4.322-0.362-5.333 1.607-0.568-2.254-2.265-3.903-4.287-3.964-1.782-0.055-3.39 1.322-4.215 3.249-0.483 1.128-0.555 2.035-0.486 2.905-0.402-0.137-0.825-0.216-1.263-0.216-2.156 0-3.965 1.777-4.514 4.194-0.097 0.429 0.158 0.858 0.522 0.858h1.237c-0.325-0.022-0.55-0.378-0.461-0.74 0.515-2.107 2.217-3.656 4.245-3.656 0.412 0 0.809 0.069 1.188 0.188-0.065-0.759 3e-3 -1.549 0.457-2.532 0.775-1.681 2.288-2.881 3.964-2.834 1.901 0.054 3.384 1.494 3.918 3.459 0.951-1.717 3.089-2.598 5.129-1.403 1.162 0.68 1.826 2.116 1.757 3.593l-1e-3 0.019c0.11-0.012 0.221-0.019 0.334-0.019 1.741 0 3.188 1.376 3.559 3.217 0.071 0.352-0.155 0.686-0.469 0.708h0.194c0.352 0 0.61-0.404 0.532-0.822-0.395-2.111-1.933-3.689-3.785-3.689" fill="#F9FAFB"/>
<path d="m26.663 10.599c-0.371-1.841-1.818-3.217-3.56-3.217-0.112 0-0.223 8e-3 -0.334 0.019l1e-3 -0.019c0.069-1.476-0.595-2.913-1.756-3.593-2.04-1.195-4.179-0.314-5.129 1.403-0.534-1.965-2.017-3.405-3.918-3.459-1.676-0.047-3.189 1.154-3.965 2.834-0.454 0.983-0.521 1.773-0.457 2.532-0.378-0.119-0.775-0.188-1.187-0.188-2.028 0-3.73 1.549-4.246 3.656-0.088 0.362 0.136 0.718 0.462 0.74h23.619c0.314-0.022 0.541-0.355 0.47-0.708" fill="#FEFEFE"/>
<path d="m100.6 15.018c-0.088 0-0.174 6e-3 -0.26 0.016l1e-3 -0.016c0.054-1.236-0.462-2.438-1.363-3.007-1.582-1-3.153-0.265-3.891 1.172-0.415-1.644-1.653-2.848-3.128-2.893-1.3-0.04-2.474 0.965-3.076 2.371-0.352 0.823-0.404 1.484-0.354 2.12-0.293-0.1-0.602-0.158-0.921-0.158-1.574 0-2.894 1.297-3.294 3.061-0.071 0.312 0.115 0.626 0.381 0.626h0.902c-0.237-0.017-0.401-0.276-0.337-0.541 0.377-1.537 1.618-2.667 3.098-2.667 0.301 0 0.591 0.05 0.867 0.137-0.048-0.554 2e-3 -1.13 0.333-1.848 0.566-1.226 1.67-2.102 2.893-2.067 1.387 0.039 2.469 1.09 2.859 2.524 0.693-1.253 2.254-1.896 3.742-1.024 0.848 0.496 1.332 1.544 1.282 2.622l-1e-3 0.013c0.08-8e-3 0.162-0.013 0.244-0.013 1.271 0 2.327 1.004 2.597 2.347 0.052 0.257-0.113 0.5-0.343 0.517h0.143c0.256 0 0.444-0.295 0.388-0.6-0.288-1.541-1.411-2.692-2.762-2.692" fill="#F9FAFB"/>
<path d="m103.17 17.793c-0.271-1.343-1.326-2.347-2.598-2.347-0.082 0-0.163 5e-3 -0.243 0.014l1e-3 -0.014c0.05-1.078-0.434-2.126-1.282-2.622-1.488-0.872-3.049-0.229-3.742 1.024-0.39-1.434-1.472-2.485-2.86-2.524-1.222-0.034-2.326 0.841-2.892 2.067-0.331 0.718-0.381 1.294-0.333 1.848-0.277-0.087-0.567-0.137-0.867-0.137-1.48 0-2.721 1.13-3.098 2.668-0.065 0.264 0.1 0.523 0.337 0.54h17.234c0.23-0.017 0.395-0.26 0.343-0.517" fill="#FEFEFE"/>
</g>
<g transform="translate(0 31.685)" fill="#BADDE1" fill-rule="nonzero">
<path d="m128.99 10.984c0-1.014-0.033836-2.883 0-4.743 0.008736-0.94108 0.008736-1.8135 0-2.6173-7.46e-4 -0.06859-0.24716-0.33682-0.73923-0.8047v-2.072h-9.4988c0 0.753 0.009923 1.5877-0.044651 2.2437-0.018853 0.221-0.26592 0.423-0.40782 0.633-0.007938 0.545 0.007938 0.9173 0 1.4613-0.001984 3.366-0.003969 2.961-0.006946 6.327 0.045644 0.51 0.15479 1.032-0.5507 1.231-0.1022 0.028-0.15479 0.383-0.15876 0.588v6.746c0 0.18067-0.49748 0.18067-1.4925 0l-0.86614-1.101c0.024806-1.152-0.0129-3.35 0-4.762 0.031216-3.417-0.006946-3.783-0.0129-7.2l-5.2679 0.052c-0.058543 0.705-0.069458 1.186-0.066481 2.031v1.01c-0.29073-0.01-1.0349-0.01-1.0349-0.041 0-0.597-0.022822-1.513-0.035721-1.865l-2.3159 0.271c0.041675 1.063 0.010915 2.789 0.047628 3.878 0.019846 0.562-0.18555 0.877-0.71939 0.992-0.91486 0.029-0.99126 0.614-0.94264 1.356 0.050606 0.757 0.011908 1.521 0.011908 2.325h-2.2048v-9.263l-4.3372 0.233c0 1.733 0.0079381 0.159 0.0079381 1.892 0 2.58-0.03969 5.159 0 7.738 0.012899 0.808-0.0069458 1.395-0.049613 2.078-0.015876 0.26-0.21234 0.716-0.28478 0.703-0.37607-0.07-0.93868-0.178-1.0468-0.437-0.24013-0.581-0.25104-1.259-0.35424-1.897-0.0099226-0.768-0.022822-1.536-0.027783-2.304-0.0089304-1.099-0.16471-1.263-1.2274-1.268-0.2947-2e-3 -0.60528-0.062-0.88112 0.011-0.34531 0.09-0.66084 0.29-0.99027 0.443-0.0019845 0.918 0.010915 1.835-0.010915 2.752-0.013892 0.549 0.080373 1.101-0.42965 1.573-0.2183 0.201-0.14586 0.721-0.20242 1.071-0.25303-0.096-0.32248-0.184-0.32248-0.271-0.017861-3.497-0.027783-2.354-0.038698-5.851-0.013892-0.048-0.010915-0.096 0.0089303-0.143-0.0039691-0.247-0.0079381-0.495-0.012899-0.743-0.44453-0.07-0.89005-0.141-1.404-0.222 0-0.89-9.923e-4 -1.799 9.922e-4 -2.708 0-0.451 0.098234-0.97-0.66283-0.807v-4.595c-0.0079381-0.246-0.016868-0.492-0.025799-0.737-0.51498 7e-3 -0.69954-0.212-0.68863-0.763 0.035721-1.852 0.011907 0.065 0.0049613-1.788 0-0.258-0.028776-0.516-0.044652-0.769l-3.7825 0.052-0.056559 2.629c-0.23516 0.028-0.32744 0.036-0.41873 0.044v5.592c-0.34134 0.361-0.5507 0.581-0.75908 0.802-0.06152 0.28-0.17067 0.558-0.17861 0.84l-0.11113 7.952c-0.10022 1e-3 -0.79281 1e-3 -0.89502 1e-3l-0.019845-1.457-2.3209 0.019c-0.06152-2.36-0.19746-3.592-0.1796-5.772 0.0029768-0.447-0.15975-0.71-0.64199-0.718-0.4098-0.047-0.52391-0.023-1.0369-0.023-0.069458-0.959 0.0059535-1.424-0.059536-2.315h-3.1168v2.338c-0.9357 0.044-0.70043 0.105-1.6351 0.149-0.024806 2.917-0.063504 5.833-0.060528 8.75 0 0.492-0.14289 0.685-0.61123 0.654 0.027783 0.165 0.055566 0.331 0.086326 0.516-0.83945-0.103-1.8258 0.673-2.3854-0.527-0.34034-0.011-0.68069-0.022-1.02-0.033-1.8585 0.078-1.4566-0.016-1.4874-1.414-0.02183-0.963 0.016868-1.926 0.028775-2.889-0.0059535-1.335-0.011907-2.669-0.016868-4.003 9.922e-4 -2.88 0.0019845 1.589 0.0029767-1.291 0-0.545 9.923e-4 -1.09 9.923e-4 -1.635-9.923e-4 -0.099-0.0019845-0.197-0.0029768-0.297-0.010915-0.492-0.03076-0.984-0.031752-1.476-0.0029768-1.178 0.010915-1.213-1.1381-1.518-0.60627-0.161-1.2502-0.173-1.8774-0.252-0.60825 0.257-1.2175 0.514-1.8853 0.797l-0.080373 3.726c0.0099225 1.115 0.038698 2.23 0.017861 3.345-0.0049613 0.28-0.13594 0.775-0.26592 0.796-0.43759 0.069-1.0786 0.143-1.3187-0.104-0.53086-0.548-0.85036-0.307-1.3594 0.157v-4.195c-0.0019845-0.594-0.003969-1.189-0.0059535-1.783 0-2.083 9.922e-4 0.016 9.922e-4 -2.067v-1.557c-0.63008-0.03-1.1818-0.056-1.7444-0.082-0.068466-0.52-0.13197-1.001-0.19647-1.482l-6.8535 0.023c-0.0029768 1.265-0.020838 1.667-0.020838 2.854-0.81762 0.041-0.88509 0.074-1.5251 0.106-0.020837 2.739-0.036714 1.295-0.065489 4.035-0.010915 1.032-0.05259 2.065-0.079381 3.098-9.922e-4 0.043-0.0099225 0.085-0.025799 0.125 9.923e-4 0.893 0.0019846 1.786 0.0019846 2.68 0.007938 0.048 0.019845 0.097 0.022822 0.146 0.064497 1.34 0.064497 1.34-1.284 1.339-2.0321-2e-3 -2.0321-2e-3 -1.8297-1.779-0.080373-0.504-0.15975-1.008-0.25799-1.633-0.30264 0-0.63604-1e-3 -0.96944 0-0.33935 2e-3 -0.68565 0.075-0.80174-0.426-0.023814-0.105-0.47728-0.244-0.60825-0.163-0.33042 0.203-0.76106 0.481-0.84143 0.806-0.13892 0.571-0.47628 0.553-0.86624 0.522-0.50506-0.04-0.70153 0.147-0.68565 0.673 0.025799 0.915-0.0069458 1.832-0.014884 2.748 0.003969 0.54 0.035721 1.082-0.0049613 1.619-0.010915 0.156-0.22921 0.296-0.35225 0.444-0.12899-0.143-0.35424-0.276-0.36912-0.43-0.044652-0.487-0.010915-0.981-0.0069458-1.471 0.0049613-1.591 0.011907-3.182 0.017861-4.772-0.02183-0.641 0.0029767-1.146-0.017861-1.854l-4.3411-0.042c0.020837 0.833 0.08335 1.146 0.055566 1.881-9.923e-4 2.003-0.014884 4.006 0.0049613 6.009 0.0059535 0.565-0.23516 0.763-0.75312 0.708-0.53979-0.057-0.74915 0.182-0.72633 0.728 0.026791 0.616 0.014884 1.23 0.0099226 1.82l-1.5688 0.031c-0.58246-0.547-1.1689-0.88-2.1125-0.327-0.076404-0.223-0.14983-0.436-0.21631-0.628-0.9992 0-1.8942 0.053-2.7763-0.033-0.078388-8e-3 -0.15182-0.056-0.22425-0.118h-1.2355c-0.99226 1.061-1.3424 0.429-1.9675 1.078-0.045644 0.048-0.25997-0.067-0.46338-0.157-6.615e-4 -0.0086667-0.28709 0.057333-0.85929 0.198-0.128-0.017-0.25898-0.029-0.38003-0.043-0.22524-0.384-0.33538-0.941-0.98829-0.768-0.59535 0.258-0.90593 0.503-1.2235 0.753l-0.8335 0.017-0.76007-0.342c-0.15082-0.097-0.30661-0.171-0.4743-0.21-0.35523-0.104-0.75808-0.06-1.2671 0.244-0.81663 0.49-1.2106 1.098-1.4884 1.937-0.22524 0.016-0.46041 0.038-0.69557 0.047l-2.1631-1.054c-0.062512 0.185-0.32844 0.369-0.53383 0.42-0.24806 0.062-0.53284-5e-3 -0.79976-0.038l-1.9746-0.682c-0.61024-0.121-0.44751-1.336-1.3673-1.092-0.85731 0.464-1.4269 0.914-2.0579 1.41l-0.74419 0.98c-0.22028-0.336-0.31851-0.507-0.40881-0.665-0.6152 0.459-1.1609 0.932-1.6352 1.343-0.55765-0.055-1.148-0.133-1.7414-0.159-0.13296-6e-3 -0.37408 0.149-0.39591 0.262-0.17662 0.942-0.87418 0.71-1.4775 0.703h-1.0827v4.729h128.99v-19.766z"/>
</g>
<g transform="translate(10 41.685)" fill="#BADADE" fill-rule="nonzero">
<path d="m17.427 3.9665v-0.147c0.039 0.044 0.066 0.076 0.1 0.113-0.036 0.013-0.065 0.022-0.1 0.034m-7.63 4.181l-0.012-0.012c0.019-0.029 0.038-0.059 0.057-0.088 4e-3 2e-3 0.01 3e-3 0.015 6e-3 1e-3 0.021 2e-3 0.043 3e-3 0.068-0.02 8e-3 -0.042 0.017-0.063 0.026m10.674-3.214c-0.035-0.083-0.085-0.139-0.185-0.121-7e-3 1e-3 -0.015-2e-3 -0.037-6e-3 0.041-0.021 0.07-0.037 0.102-0.053-0.011-0.021-0.021-0.039-0.031-0.058-0.038 7e-3 -0.071 0.016-0.104 0.021-0.032 4e-3 -0.064 4e-3 -0.096 6e-3v-9e-3c0.051-0.022 0.1-0.044 0.151-0.065-1e-3 -8e-3 -1e-3 -0.016-2e-3 -0.023-0.023-4e-3 -0.047-8e-3 -0.07-0.011 5e-3 -2e-3 0.011-4e-3 0.017-6e-3 -7e-3 -0.027-8e-3 -0.058-0.022-0.08-0.031-0.05-0.081-0.069-0.14-0.08-0.14-0.025-0.28-0.057-0.42-0.086 1e-3 -6e-3 2e-3 -0.012 2e-3 -0.018 0.104-9e-3 0.207-0.018 0.324-0.028-0.062-0.067-0.109-0.109-0.196-0.102-0.124 0.01-0.25 2e-3 -0.371 2e-3 0.088-0.034 0.18-0.071 0.283-0.112-0.066-0.056-0.117-0.075-0.186-0.037-0.056 0.031-0.119 0.049-0.18 0.069-0.055 0.018-0.112 0.032-0.169 0.048-1e-3 -4e-3 -3e-3 -8e-3 -4e-3 -0.011 0.089-0.066 0.177-0.132 0.28-0.209-0.111-0.033-0.2-0.087-0.304-0.066-0.069 0.015-0.136 0.041-0.205 0.055-0.085 0.019-0.171 0.032-0.257 0.047-1e-3 -3e-3 -1e-3 -6e-3 -1e-3 -9e-3 0.078-0.048 0.157-0.096 0.235-0.144-0.067-0.025-0.128-0.032-0.19-0.042-0.081-0.012-0.154 0-0.227 0.042-0.06 0.035-0.129 0.054-0.194 0.079-4e-3 -7e-3 -9e-3 -0.014-0.014-0.022 0.038-0.032 0.076-0.065 0.127-0.11-0.131 0.01-0.244 0.019-0.357 0.027-0.055 4e-3 -0.106 0.011-0.129 0.073-5e-3 0.012-0.023 0.021-0.036 0.031-0.031-0.088 0.044-0.096 0.075-0.116 6e-3 -0.074 0.011-0.137 0.016-0.2 0.027 0.021 0.035 0.045 0.051 0.062 0.03 0.032 0.055 0.083 0.113 0.066 0.095-0.028 0.188-0.061 0.282-0.091 0.032-0.01 0.041-0.029 0.037-0.063-5e-3 -0.037 2e-3 -0.076 4e-3 -0.114 6e-3 0 0.012 0 0.018-1e-3 8e-3 0.019 0.017 0.038 0.025 0.056 0.021 0.05 0.056 0.071 0.112 0.063 0.163-0.024 0.327-0.049 0.491-0.067 0.09-0.01 0.161-0.038 0.192-0.129 1e-3 -2e-3 6e-3 -3e-3 0.016-6e-3 -1e-3 0.038-3e-3 0.072-5e-3 0.111 0.458-0.077 0.902-0.181 1.325-0.397-0.031-0.016-0.049-0.028-0.068-0.036-0.298-0.12-0.592-0.253-0.895-0.357-0.381-0.131-0.775-0.209-1.182-0.187-0.1 5e-3 -0.2 0.027-0.301 0.041 0.045 0.049 0.08 0.089 0.115 0.128l-0.013 0.013c-0.012-6e-3 -0.024-0.01-0.034-0.017-0.11-0.081-0.222-0.091-0.347-0.028-0.129 0.064-0.265 0.115-0.404 0.173 0.157 0.126 0.171 0.146 0.161 0.215-0.107-0.041-0.216-0.082-0.328-0.125 0.046-0.088-0.044-0.114-0.102-0.177 0.055 9e-3 0.091 0.01 0.125 0.02 0.034 0.011 0.055 5e-3 0.072-0.027 0.028-0.051 0.058-0.101 0.086-0.151 0.066-0.121 0.103-0.13-0.04-0.259-2e-3 -2e-3 1e-3 -7e-3 2e-3 -0.02 0.049 8e-3 0.097 0.017 0.145 0.022 0.019 1e-3 0.047-4e-3 0.057-0.017 0.06-0.085 0.116-0.175 0.174-0.261 0.023-0.034 0.019-0.064-3e-3 -0.095-0.024-0.033-0.047-0.068-0.071-0.101 3e-3 -5e-3 5e-3 -0.01 8e-3 -0.014 0.061 0.019 0.121 0.038 0.182 0.056 0.016 4e-3 0.041 8e-3 0.05 0 0.075-0.068 0.147-0.138 0.22-0.207 0.032-0.031 0.028-0.066 5e-3 -0.099-0.029-0.042-0.06-0.082-0.091-0.123 2e-3 -5e-3 4e-3 -9e-3 6e-3 -0.014 0.065 0.029 0.129 0.058 0.199 0.09 0.165-0.201 0.332-0.403 0.503-0.609-0.119 0-0.239-2e-3 -0.358 2e-3 -0.023 1e-3 -0.047 0.023-0.067 0.034-0.015-0.011-0.033-0.036-0.052-0.036-0.09-2e-3 -0.181-7e-3 -0.27 6e-3 -0.133 0.018-0.133 0.024-0.147 0.157 0 4e-3 -4e-3 7e-3 -0.01 0.017-0.019-0.025-0.042-0.045-0.054-0.071-0.02-0.047-0.046-0.051-0.09-0.035-0.196 0.069-0.378 0.164-0.542 0.291-0.017 0.012-0.029 0.042-0.029 0.064 1e-3 0.048 0.012 0.097 0.019 0.146-6e-3 3e-3 -0.011 6e-3 -0.017 0.01-0.033-0.039-0.067-0.078-0.105-0.122-0.051 0.049-0.108 0.098-0.157 0.154-0.021 0.024-0.038 0.064-0.035 0.095 0.01 0.091 0.03 0.18 0.046 0.269-0.075-0.012-0.089-0.026-0.176-0.2-0.106 0.165-0.209 0.323-0.308 0.483-0.012 0.019-0.01 0.05-5e-3 0.074 0.013 0.058 0.031 0.115 0.047 0.173-7e-3 3e-3 -0.013 7e-3 -0.02 0.01-0.029-0.043-0.058-0.086-0.091-0.132-0.097 0.206-0.136 0.424-0.159 0.645-0.09-0.02-0.171-0.037-0.256-0.056 0.061-0.089 0.151-0.071 0.254-0.074-0.099-0.158-0.192-0.301-0.281-0.446-0.027-0.043-0.061-0.063-0.109-0.068-0.049-6e-3 -0.098-0.015-0.148-0.022 0-8e-3 -1e-3 -0.016-1e-3 -0.023 0.049-9e-3 0.097-0.019 0.146-0.028-2e-3 -5e-3 -3e-3 -0.01-6e-3 -0.013-9e-3 -0.011-0.019-0.022-0.029-0.033-0.233-0.248-0.525-0.406-0.833-0.536-0.339-0.142-0.693-0.238-1.054-0.311-0.08-0.016-0.161-0.028-0.256-0.044 0.213 0.404 0.496 0.732 0.809 1.04 0.019-0.032 0.035-0.057 0.05-0.082 5e-3 0 0.01 1e-3 0.016 2e-3 -0.039 0.104 0.023 0.164 0.087 0.224 0.103 0.097 0.207 0.193 0.31 0.29 0.062 0.06 0.083 0.065 0.157 0.022 0.011-7e-3 0.024-0.013 0.035-0.019-6e-3 0.037-0.019 0.071-0.043 0.092-0.034 0.032-0.027 0.057-3e-3 0.088 0.033 0.044 0.064 0.091 0.098 0.136 0.087 0.121 0.104 0.125 0.238 0.065 3e-3 -1e-3 7e-3 2e-3 0.023 4e-3 -0.034 0.055-0.067 0.106-0.106 0.166 0.06 0.093 0.121 0.194 0.188 0.29 0.014 0.018 0.053 0.025 0.08 0.025 0.036 0 0.073-0.012 0.109-0.019 4e-3 7e-3 9e-3 0.014 0.014 0.02-0.061 0.057-0.122 0.113-0.195 0.18 0.015-0.176-0.124-0.207-0.22-0.285v0.185c-0.026-0.038-0.039-0.076-0.057-0.112-0.025-0.052-0.041-0.12-0.083-0.149-0.093-0.065-0.199-0.11-0.308-0.167 0.019 0.094 0.034 0.171 0.05 0.248-8e-3 4e-3 -0.017 8e-3 -0.024 0.012-0.015-0.015-0.033-0.028-0.045-0.045-0.058-0.079-0.115-0.161-0.175-0.239-0.02-0.026-0.047-0.056-0.076-0.065-0.105-0.029-0.211-0.051-0.329-0.078v0.223c-0.033-0.061-0.055-0.121-0.08-0.18-8e-3 -0.018-0.024-0.046-0.038-0.047-0.133-9e-3 -0.267-0.014-0.404-0.02 0.012 0.105 0.022 0.194 0.032 0.283-5e-3 4e-3 -0.011 9e-3 -0.017 0.013-0.019-0.013-0.044-0.023-0.056-0.041-0.039-0.058-0.072-0.121-0.111-0.18-0.013-0.02-0.039-0.048-0.056-0.046-0.124 0.015-0.248 0.036-0.374 0.055 0.022 0.053 0.038 0.09 0.055 0.127-4e-3 6e-3 -7e-3 0.012-0.01 0.017-0.101-0.134-0.217-0.104-0.336-0.046-0.019 9e-3 -0.04 0.015-0.063 0.023 0.012 0.03 0.026 0.057 0.034 0.085 8e-3 0.026 0.01 0.055 0.015 0.09-0.204-0.122-0.249-0.122-0.4-5e-3 0.012 0.022 0.024 0.045 0.041 0.075-0.046-0.019-0.09-0.053-0.114-0.041-0.088 0.04-0.169 0.094-0.252 0.144 0.031 0.032 0.053 0.056 0.086 0.091-0.032 0-0.049 5e-3 -0.06 0-0.086-0.043-0.156-0.018-0.22 0.044-0.017 0.016-0.039 0.028-0.057 0.043-0.061 0.05-0.121 0.101-0.182 0.152 0.57-0.095 1.136-0.127 1.706-0.087s1.125 0.152 1.663 0.346c-0.308 0.015-0.597 0.091-0.85 0.266-0.133 0.091-0.271 0.14-0.426 0.173-0.305 0.065-0.545 0.24-0.742 0.475 0.073 0.035 0.143 0.068 0.213 0.102-0.075 0.012-0.144 8e-3 -0.212 0.013-0.103 6e-3 -0.142 0.045-0.165 0.152 0.029 9e-3 0.057 0.017 0.085 0.028 0.029 0.011 0.057 0.026 0.085 0.039-0.055 3e-3 -0.108-5e-3 -0.16-5e-3 -0.019-1e-3 -0.048 0.013-0.054 0.028-0.014 0.036-0.018 0.077-0.026 0.115 0.284 0.056 0.284 0.056 0.32 0.097-0.082 7e-3 -0.175 6e-3 -0.263 0.024-0.093 0.018-0.103 0.046-0.096 0.152 0.036-0.01 0.069-0.022 0.104-0.029 0.036-7e-3 0.072-8e-3 0.122-0.013-0.144 0.096-0.29 0.161-0.376 0.328-0.01-0.06-0.017-0.1-0.023-0.143-0.109 6e-3 -0.225-8e-3 -0.275 0.127-1e-3 -0.029-3e-3 -0.058-5e-3 -0.098-0.098 0.029-0.19 0.057-0.281 0.084-0.012 0.069-0.023 0.139-0.037 0.208-2e-3 0.014-0.014 0.026-0.022 0.04-0.01-0.011-0.026-0.02-0.031-0.034-0.019-0.052-0.035-0.105-0.053-0.161-0.041 0.017-0.079 0.03-0.114 0.05-0.208 0.113-0.185 0.055-0.159 0.278 0 1e-3 -1e-3 3e-3 -9e-3 0.017-0.028-0.055-0.052-0.103-0.073-0.143-0.233 0.073-0.26 0.277-0.285 0.483-8e-3 -3e-3 -0.017-5e-3 -0.026-8e-3 -0.016-0.057-0.031-0.114-0.047-0.172-0.122 0.115-0.217 0.239-0.162 0.424-0.059-0.075-0.073-0.132-0.054-0.178 0.205-0.503 0.524-0.923 0.927-1.283 0.118-0.105 0.239-0.206 0.359-0.309-1e-3 -7e-3 -1e-3 -0.014-2e-3 -0.021-0.08 0-0.16-5e-3 -0.239 3e-3 -0.025 2e-3 -0.047 0.041-0.065 0.059-0.012-0.016-0.025-0.033-0.038-0.05-0.013 0.017-0.027 0.033-0.036 0.052-0.012 0.021-0.019 0.044-0.028 0.066-3e-3 -1e-3 -6e-3 -2e-3 -9e-3 -3e-3v-0.099c-0.019 7e-3 -0.035 0.02-0.047 0.016-0.057-0.018-0.098-1e-3 -0.133 0.045-0.062 0.078-0.126 0.155-0.189 0.232-4e-3 -3e-3 -7e-3 -5e-3 -0.01-7e-3 0.024-0.064 0.049-0.128 0.076-0.197-0.074 0.011-0.11 0.044-0.132 0.103-0.026 0.07-0.063 0.135-0.096 0.203-3e-3 -2e-3 -6e-3 -4e-3 -9e-3 -5e-3 6e-3 -0.063 0.012-0.126 0.017-0.192-0.056 9e-3 -0.075 0.037-0.081 0.083-9e-3 0.087-0.024 0.172-0.037 0.258-5e-3 -1e-3 -9e-3 -2e-3 -0.013-2e-3 -0.012-0.072-0.024-0.144-0.038-0.231-0.072 0.069-0.138 0.116-0.151 0.214-0.011 0.087-0.045 0.171-0.069 0.257-4e-3 -1e-3 -9e-3 -2e-3 -0.013-3e-3 -3e-3 -0.057-6e-3 -0.114-0.01-0.179-0.141 0.106-0.14 0.252-0.159 0.393-0.01-0.03-0.021-0.061-0.036-0.104-0.021 0.046-0.037 0.079-0.051 0.112-0.016 0.034-0.031 0.07-0.048 0.109-0.025-0.044-0.047-0.083-0.069-0.122-0.022 0.037-0.04 0.067-0.057 0.097 9e-3 -0.184 9e-3 -0.184-0.113-0.332-0.053-0.063-0.107-0.124-0.164-0.192-0.03 0.071-0.037 0.142-0.118 0.162 0.038-0.254 0.021-0.295-0.151-0.374-0.023 0.032-0.045 0.063-0.067 0.094-0.012-0.038-5e-3 -0.07-8e-3 -0.101-3e-3 -0.022-0.012-0.054-0.029-0.064-0.146-0.087-0.301-0.155-0.473-0.18-0.019 0.031-0.036 0.061-0.055 0.093-0.026-0.043 1e-3 -0.11-0.069-0.11-0.085 0-0.171 5e-3 -0.256 0.011-0.019 2e-3 -0.038 0.018-0.049 0.024-0.111-0.027-0.215-1e-3 -0.285 0.01 0.108 0.12 0.226 0.25 0.343 0.382 0.033 0.038 0.062 0.043 0.102 8e-3 0.023-0.02 0.055-0.031 0.082-0.047-8e-3 0.034-0.022 0.058-0.036 0.082-0.029 0.044-0.029 0.083 0.017 0.116 0.058 0.044 0.116 0.088 0.167 0.128 0.06-0.023 0.112-0.043 0.163-0.063-5e-3 0.033-0.022 0.052-0.027 0.074-7e-3 0.026-0.015 0.063-2e-3 0.081 0.051 0.073 0.11 0.141 0.16 0.204 0.054-0.014 0.098-0.025 0.13-0.033-0.014 0.05-0.05 0.114-0.033 0.138 0.061 0.085 0.073 0.255 0.261 0.174-0.091 0.057-0.073 0.12-0.035 0.187 0.022 0.04 0.042 0.082 0.054 0.124 0.013 0.044 0.015 0.091 0.022 0.137-0.042-0.074-0.062-0.158-0.112-0.217-0.048-0.059-0.127-0.093-0.195-0.14 5e-3 0.071 9e-3 0.129 0.013 0.187-9e-3 3e-3 -0.017 5e-3 -0.025 8e-3 -0.048-0.086-0.088-0.178-0.147-0.254-0.066-0.085-0.177-0.091-0.271-0.123-9e-3 0.056-0.018 0.105-0.027 0.153-0.02-0.041-0.025-0.082-0.039-0.12-7e-3 -0.022-0.023-0.053-0.041-0.057-0.094-0.023-0.191-0.037-0.298-0.057v0.222l-0.018 6e-3c-0.012-0.014-0.026-0.027-0.034-0.044-0.024-0.048-0.042-0.098-0.067-0.146-9e-3 -0.016-0.03-0.036-0.046-0.036-0.091-1e-3 -0.183 4e-3 -0.277 8e-3 0.013 0.039 0.022 0.067 0.03 0.095-2e-3 7e-3 -6e-3 0.014-9e-3 0.022-0.081-0.151-0.192-0.086-0.297-0.064 6e-3 0.045 0.012 0.086 0.017 0.126-0.13-0.111-0.157-0.115-0.302-0.034 5e-3 0.016 0.011 0.033 0.019 0.056-0.117-0.083-0.188 0.026-0.282 0.043 0.018 0.03 0.031 0.051 0.044 0.073-0.031 1e-3 -0.051-8e-3 -0.073-0.014-0.02-6e-3 -0.046-0.018-0.06-0.011-0.09 0.048-0.176 0.1-0.264 0.151 2e-3 6e-3 4e-3 0.01 6e-3 0.016 0.591-0.022 1.17 0.041 1.741 0.221-0.104 0.035-0.203 0.058-0.292 0.101-0.077 0.037-0.208 0.035-0.165 0.205-0.096-0.099-0.151-0.031-0.211 0.014-0.019 0.014-0.036 0.032-0.057 0.044-0.04 0.024-0.036 0.052-0.011 0.084 0.031 0.041 0.061 0.083 0.092 0.124-0.061-0.015-0.116-0.037-0.168-0.065-0.038-0.021-0.067-0.016-0.096 0.016-0.061 0.069-0.121 0.14-0.185 0.206-0.059 0.06-0.079 0.119-0.02 0.189 2e-3 2e-3 -2e-3 8e-3 -6e-3 0.017-0.024-4e-3 -0.048-0.013-0.073-0.012-0.019 1e-3 -0.046 8e-3 -0.055 0.022-0.238 0.388-0.371 0.808-0.383 1.265 0 0.013 5e-3 0.026 7e-3 0.044 0.078-0.093 0.148-0.182 0.223-0.268s0.155-0.167 0.23-0.252c0.023-0.025 0.036-0.059 0.052-0.086 0.029-0.016 0.065-0.03 0.093-0.053 0.111-0.094 0.219-0.19 0.339-0.294-4e-3 0.044-7e-3 0.071-9e-3 0.089 0.079 0.024 0.152 0.045 0.225 0.066l-6e-3 0.018c-0.181-0.023-0.252 8e-3 -0.248 0.109 0.046-8e-3 0.091-0.017 0.128-0.024-0.044 0.044-0.111 0.083-0.132 0.139-0.022 0.059 0 0.136 3e-3 0.205 0.041-0.012 0.071-0.021 0.1-0.029-0.09 0.097-0.097 0.169-0.028 0.315 0.027-5e-3 0.052-0.011 0.079-0.016-0.107 0.122-7e-3 0.219 0.02 0.327 0.02-0.015 0.032-0.025 0.038-0.03 3e-3 0.035 1e-3 0.073 0.012 0.106 9e-3 0.026 0.025 0.052 0.037 0.076 0.046 0.087 0.107 0.166 0.167 0.257 0.029-0.112 0.054-0.211 0.078-0.311 0.043-0.179 0.062-0.146-0.104-0.205-3e-3 -1e-3 -4e-3 -5e-3 -0.01-0.015 0.043-8e-3 0.082-0.022 0.122-0.023 0.041-2e-3 0.061-0.015 0.071-0.055 0.021-0.077 0.043-0.153 0.071-0.227 0.019-0.049 0-0.067-0.041-0.078l-0.165-0.045v-0.017c0.069-4e-3 0.138-7e-3 0.206-0.014 0.02-1e-3 0.047-0.012 0.054-0.027 0.029-0.055 0.051-0.113 0.077-0.169 0.017-0.036 9e-3 -0.056-0.03-0.066-0.069-0.018-0.138-0.037-0.207-0.055 0.07-0.021 0.141-0.032 0.213-0.035 0.086-3e-3 0.103-0.014 0.138-0.118-0.095-0.029-0.19-0.059-0.285-0.089 2e-3 -7e-3 3e-3 -0.015 4e-3 -0.023 0.114 9e-3 0.228 0.018 0.347 0.028 0.012-0.021 0.029-0.05 0.05-0.086-0.057-0.017-0.107-0.031-0.158-0.047 0.045-0.011 0.088-0.015 0.13-0.01 0.044 5e-3 0.072-5e-3 0.095-0.044 0.061-0.103 0.146-0.176 0.267-0.208-9e-3 0.067-0.017 0.131-0.025 0.207 0.115-0.032 0.221-0.061 0.326-0.09-0.093 0.068-0.192 0.123-0.288 0.18-0.017 0.01-0.041 0.029-0.04 0.043 0.01 0.141 0.025 0.28 0.039 0.422 0.074-9e-3 0.135-0.016 0.195-0.023-0.034 0.023-0.07 0.035-0.105 0.048-0.041 0.014-0.081 0.029-0.043 0.086 0.089-0.011 0.178-0.022 0.267-0.032 0 3e-3 0 5e-3 1e-3 8e-3 -0.081 0.033-0.161 0.066-0.249 0.102 0.06 0.135 0.117 0.261 0.175 0.392 0.04-0.023 0.068-0.04 0.097-0.056-4e-3 0.031-0.019 0.053-0.029 0.078-6e-3 0.017-0.015 0.044-7e-3 0.057 0.067 0.1 0.138 0.198 0.219 0.312 0.034-0.089 0.06-0.157 0.087-0.224 0.025-0.062 0.026-0.116-0.056-0.166 0.047 8e-3 0.073 0.013 0.102 0.018 0.049-0.138 0.097-0.272 0.146-0.41-0.045-9e-3 -0.08-0.016-0.115-0.024 0.053-0.033 0.151 0.02 0.16-0.091-0.027-0.01-0.054-0.022-0.083-0.031-0.028-8e-3 -0.058-0.014-0.087-0.021 0.012-0.014 0.023-0.019 0.032-0.017 0.157 0.03 0.239-0.056 0.288-0.19 2e-3 -4e-3 1e-3 -8e-3 2e-3 -0.024-0.093-0.025-0.189-0.052-0.285-0.079 0.082-0.015 0.164-0.018 0.245-0.014 0.11 7e-3 0.119 4e-3 0.167-0.118-0.124-0.038-0.247-0.075-0.373-0.112 0.019-2e-3 0.038-8e-3 0.055-6e-3 0.113 0.011 0.225 0.026 0.338 0.036l0.189-0.432c3e-3 -5e-3 6e-3 -9e-3 0.01-0.015 0.022 2e-3 0.045 0 0.066 7e-3 0.07 0.023 0.114-3e-3 0.144-0.066 0.014-0.027 0.036-0.05 0.046-0.078 0.021-0.062 0.05-0.104 0.128-0.086 0.016 4e-3 0.039-0.02 0.059-0.032 0.032-0.019 0.064-0.038 0.105-0.063-0.017 0.046-0.029 0.079-0.043 0.118 0.135 0.051 0.264 0.103 0.395 0.149 0.02 7e-3 0.052-8e-3 0.076-0.02 0.037-0.018 0.072-0.042 0.11-0.065 3e-3 0.012 6e-3 0.017 5e-3 0.019-0.062 0.122-0.061 0.12 0.063 0.18 0.097 0.047 0.192 0.097 0.285 0.15 0.036 0.02 0.062 0.025 0.097-4e-3 0.034-0.026 0.077-0.041 0.124-0.049-0.01 0.015-0.024 0.029-0.029 0.045-9e-3 0.035-0.03 0.089-0.015 0.104 0.032 0.034 0.073 0.083 0.137 0.046 0.023-0.013 0.053-0.013 0.079-0.019 3e-3 0.01 6e-3 0.016 4e-3 0.018-0.056 0.069-0.054 0.067 0.016 0.124 0.122 0.101 0.241 0.206 0.364 0.307 0.027 0.023 0.062 0.035 0.096 0.054 0.014 0.024 0.026 0.06 0.049 0.087 0.15 0.17 0.303 0.337 0.46 0.512-6e-3 -0.484-0.143-0.925-0.402-1.334-0.02 4e-3 -0.038 9e-3 -0.056 0.013-0.018 3e-3 -0.037 4e-3 -0.055 7e-3 -2e-3 -0.01-5e-3 -0.015-3e-3 -0.017 0.051-0.065 0.044-0.122-0.015-0.181-0.068-0.068-0.129-0.143-0.194-0.214-0.026-0.03-0.054-0.035-0.092-0.015-0.052 0.027-0.107 0.049-0.169 0.064 0.03-0.041 0.062-0.082 0.092-0.123 0.026-0.035 0.029-0.066-0.016-0.089-0.014-7e-3 -0.024-0.018-0.036-0.027-0.064-0.048-0.12-0.128-0.224-0.04 0.043-0.108-0.028-0.135-0.092-0.158-0.125-0.046-0.251-0.084-0.376-0.127-0.047-0.017-0.077-8e-3 -0.099 0.038-9e-3 0.018-0.031 0.029-0.052 0.048-0.012-0.109-0.013-0.113-0.113-0.107-0.093 6e-3 -0.187 0.02-0.28 0.035-0.069 0.011-0.068 0.015-0.09 0.085-0.016-0.011-0.03-0.02-0.053-0.035 0.403-0.368 0.847-0.655 1.325-0.867 0.024 0.113 0.048 0.225 0.071 0.338 0.048-0.015 0.09-0.028 0.145-0.045-0.012 0.028-0.014 0.042-0.022 0.049-0.092 0.08-0.076 0.171-0.032 0.268 0.024 0.053 0.043 0.109 0.065 0.167 0.022-0.019 0.042-0.036 0.061-0.052-0.019 0.073-0.029 0.142 0.033 0.205 9e-3 -6e-3 0.023-0.015 0.05-0.032-0.048 0.072-0.015 0.119 0.018 0.168 0.065 0.095 0.129 0.192 0.199 0.298 8e-3 -0.023 0.014-0.038 0.017-0.052 0.044-0.179 0.085-0.359 0.133-0.536 0.016-0.06-5e-3 -0.089-0.055-0.107-0.048-0.018-0.097-0.034-0.148-0.067 0.071-0.013 0.143-0.025 0.214-0.04 0.018-4e-3 0.046-0.012 0.051-0.025 0.048-0.148 0.093-0.297 0.144-0.459-0.113-0.032-0.221-0.063-0.328-0.094 0.096-0.043 0.202-0.049 0.308-0.036 0.04 4e-3 0.058-5e-3 0.073-0.041 0.041-0.101 0.087-0.201 0.134-0.309-0.116-0.076-0.248-0.087-0.382-0.115 0.05-0.013 0.098-0.031 0.148-0.037 0.076-9e-3 0.155-0.017 0.231-0.013 0.047 2e-3 0.071-9e-3 0.09-0.049 0.016-0.032 0.037-0.062 0.058-0.097-0.133-0.091-0.29-0.105-0.445-0.151 0.157-0.039 0.304-0.037 0.447 8e-3 0.062 0.019 0.096 8e-3 0.119-0.051 8e-3 -0.021 0.023-0.04 0.043-0.075-0.092-0.023-0.177-0.045-0.266-0.067 0.077-0.025 0.157-0.028 0.237-0.014 0.05 9e-3 0.089 0 0.112-0.047 0.097-0.193 0.277-0.28 0.463-0.356 0.068-0.027 0.114-0.06 0.136-0.136 0.016-0.057 0.058-0.107 0.095-0.158 6e-3 0.064 4e-3 0.122-0.045 0.175-0.048 0.052-0.083 0.117-0.125 0.178 0.171 0.018 0.332 0.035 0.493 0.053v0.018c-0.098 0.017-0.197 0.031-0.295 0.054-0.089 0.021-0.177 0.049-0.263 0.081-0.024 8e-3 -0.05 0.035-0.058 0.06-0.035 0.103-0.063 0.209-0.094 0.315h0.495c-0.045 0.013-0.077 0.022-0.107 0.033-0.129 0.047-0.257 0.094-0.385 0.144-0.018 8e-3 -0.041 0.03-0.043 0.048-0.03 0.233-0.056 0.467-0.084 0.704 0.102 0.017 0.19 0.031 0.277 0.045 0 3e-3 0 7e-3 -1e-3 0.01-0.056 9e-3 -0.113 0.015-0.169 0.027-0.095 0.02-0.094 0.021-0.081 0.12 0.12 0.019 0.24 0.038 0.36 0.057 0 4e-3 0 0.01-1e-3 0.015-0.115 0.019-0.23 0.038-0.358 0.06 0.033 0.244 0.066 0.477 0.099 0.716 0.043-0.015 0.075-0.027 0.118-0.042-0.014 0.035-0.021 0.066-0.037 0.091-0.022 0.037-0.046 0.071-0.034 0.118 3e-3 0.01-3e-3 0.028-0.011 0.035-0.098 0.087-0.097 0.217-0.145 0.325-0.012 0.028-0.033 0.052-0.047 0.079-0.016 0.027-0.034 0.055-0.042 0.085-0.022 0.078-0.037 0.158-0.06 0.236-0.038 0.126-0.08 0.25-0.119 0.376-0.011 0.034-0.014 0.072-0.027 0.106-0.022 0.055-0.056 0.106-0.073 0.162-0.029 0.095-0.052 0.191-0.072 0.287-0.031 0.153-0.04 0.312-0.09 0.458-0.05 0.145-0.723 2.532-0.781 2.666-0.036 0.083-0.049 0.168-0.064 0.252l0.83 0.092c7e-3 -0.039-0.011-0.084 0-0.121 0.053-0.187 0.694-2.7 0.687-2.904-2e-3 -0.038 0.011-0.077 0.023-0.113 0.023-0.078-0.012-0.16 0.03-0.238 0.035-0.066 0.053-0.141 0.071-0.213 0.015-0.06 0.011-0.124 0.029-0.182 0.024-0.073 0.068-0.139 0.092-0.212 0.035-0.106 0.103-0.198 0.105-0.321 1e-3 -0.104 0.045-0.21 0.079-0.313s0.082-0.203 0.119-0.305c0.013-0.038 2e-3 -0.087 0.021-0.119 0.122-0.215 0.226-0.436 0.29-0.675 6e-3 -0.023 0.029-0.054 0.02-0.065-0.03-0.043 2e-3 -0.07 0.018-0.1 0.073-0.14 0.148-0.279 0.224-0.421-0.047-0.062 0.025-0.094 0.038-0.126 0.036-9e-3 0.067-8e-3 0.08-0.022 0.039-0.041 0.072-0.088 0.107-0.132-0.056-0.069-0.057-0.112-8e-3 -0.198 0.019 0.013 0.039 0.026 0.058 0.04 0.019 0.013 0.037 0.027 0.055 0.04 0.089-0.081 0.089-0.084 0.016-0.171-0.012-0.015-0.031-0.028-0.036-0.045-0.01-0.033-0.012-0.07-0.017-0.105 0.025 0 0.052-6e-3 0.075 1e-3 0.055 0.018 0.106 0.042 0.17 0.068 0.064-0.079 0.132-0.162 0.209-0.258-0.081-0.047-0.151-0.086-0.219-0.129-0.021-0.013-0.047-0.041-0.045-0.057 6e-3 -0.04 0.042-0.035 0.072-0.024 0.096 0.036 0.191 0.072 0.306 0.116 0.073-0.112 0.152-0.23 0.229-0.351 7e-3 -0.013 1e-3 -0.043-0.01-0.058-0.064-0.087-0.132-0.173-0.2-0.258-8e-3 -0.011-0.027-0.013-0.041-0.019l0.021-0.021c0.12 0.039 0.187 0.144 0.274 0.24v-0.075c0.086-9e-3 0.168-0.017 0.264-0.025-0.054 0.049-0.094 0.085-0.134 0.121 0.126 0.14 0.246 0.269 0.361 0.403 0.038 0.044 0.078 0.058 0.134 0.053 0.064-7e-3 0.129-7e-3 0.21-0.01-0.051 0.039-0.087 0.066-0.123 0.093-0.048 0.036-0.044 0.069-7e-3 0.117 0.118 0.155 0.23 0.315 0.347 0.472 0.012 0.016 0.043 0.025 0.066 0.026 0.072 3e-3 0.145 1e-3 0.221 1e-3 -0.064 0.054-0.12 0.102-0.174 0.147 0.017 0.03 0.027 0.046 0.035 0.064 0.028 0.066 0.068 0.109 0.148 0.106 0.032-2e-3 0.066 0.019 0.116 0.036-0.03 0.012-0.039 0.016-0.049 0.02-0.091 0.034-0.092 0.045-0.053 0.135 0.089 0.202 0.176 0.405 0.261 0.609 0.025 0.059 0.031 0.132 0.136 0.129-0.063 0.048-0.057 0.091-0.042 0.143 0.063 0.218 0.122 0.437 0.18 0.657 0.025 0.095 0.042 0.191 0.063 0.287 6e-3 2e-3 0.013 2e-3 0.018 3e-3 0.049-0.125 0.101-0.249 0.147-0.375 0.176-0.48 0.23-0.975 0.19-1.482-4e-3 -0.044-0.013-0.071-0.066-0.075-0.034-2e-3 -0.067-0.022-0.11-0.037 0.024-0.014 0.036-0.022 0.048-0.03 0.091-0.054 0.104-0.075 0.08-0.176-0.032-0.136-0.073-0.269-0.105-0.405-0.018-0.074-0.053-0.106-0.134-0.101-0.08 6e-3 -0.162-5e-3 -0.243-8e-3 0.073-0.049 0.145-0.085 0.218-0.121 0.045-0.022 0.057-0.05 0.032-0.097-0.037-0.066-0.07-0.133-0.1-0.202-0.02-0.046-0.045-0.068-0.098-0.057-0.026 5e-3 -0.053-1e-3 -0.088-3e-3 0.021-0.031 0.041-0.05 0.047-0.073 8e-3 -0.028 0.014-0.067 1e-3 -0.088-0.132-0.2-0.293-0.375-0.49-0.513-0.017-0.011-0.047-0.01-0.067-4e-3 -0.042 0.013-0.082 0.034-0.135 0.056 9e-3 -0.029 0.013-0.043 0.018-0.056 0.036-0.1 0.036-0.101-0.062-0.147-0.066-0.031-0.133-0.06-0.215-0.096 0.992-0.071 1.896 0.191 2.775 0.588-0.029-0.085-0.066-0.162-0.1-0.24"/>
<path d="m5.6968 4.508c-0.028 3e-3 -0.056 6e-3 -0.083 0.01-0.013-0.027-0.025-0.051-0.037-0.075l0.014-0.017 0.112 0.063c-2e-3 7e-3 -4e-3 0.013-6e-3 0.019m2.057-2.665c-0.124-3e-3 -0.248-9e-3 -0.372-8e-3 -0.02 1e-3 -0.041 0.029-0.059 0.047-0.02 0.019-0.036 0.042-0.07 0.058 1e-3 -0.031 3e-3 -0.062 4e-3 -0.103-0.11 0.036-0.251-0.041-0.329 0.118-4e-3 -0.03-8e-3 -0.051-0.011-0.071-0.203-3e-3 -0.231 0.017-0.305 0.213-0.019-0.047-0.037-0.094-0.057-0.145-0.127 0.037-0.283 0.032-0.282 0.243-8e-3 -7e-3 -0.015-0.013-0.023-0.019-7e-3 -0.035-0.014-0.07-0.023-0.12-0.104 0.052-0.205 0.099-0.302 0.153-0.018 0.01-0.029 0.044-0.029 0.067 1e-3 0.065 0.01 0.131 0.014 0.196 1e-3 0.023-7e-3 0.045-0.011 0.068-8e-3 1e-3 -0.015 2e-3 -0.023 4e-3 -0.04-0.075-0.081-0.148-0.131-0.24-0.104 0.084-0.199 0.157-0.288 0.237-0.016 0.014-0.015 0.058-0.01 0.086 8e-3 0.048 0.026 0.095 0.028 0.152-0.038-0.047-0.075-0.095-0.119-0.15-0.082 0.09-0.198 0.162-0.22 0.292-0.019 0.117-7e-3 0.239-9e-3 0.359-0.01 2e-3 -0.02 4e-3 -0.031 6e-3 -0.029-0.065-0.059-0.129-0.096-0.209-0.046 0.092-0.11 0.174-0.128 0.265-0.018 0.093 9e-3 0.195 7e-3 0.3-0.019-0.053-0.044-0.105-0.057-0.16-0.012-0.053-0.015-0.11-0.015-0.164 1e-3 -0.096-0.016-0.175-0.146-0.182 0.25-0.024 0.162-0.214 0.179-0.34 4e-3 -0.037-0.073-0.084-0.117-0.13 0.04-0.01 0.093-0.024 0.16-0.041 0.016-0.096 0.04-0.204 0.052-0.314 3e-3 -0.027-0.027-0.061-0.05-0.086-0.018-0.02-0.047-0.03-0.073-0.063 0.068-9e-3 0.135-0.018 0.213-0.028 0.032-0.073 0.068-0.154 0.106-0.235 0.029-0.063 6e-3 -0.105-0.05-0.137-0.03-0.016-0.059-0.034-0.088-0.066 0.039 1e-3 0.079-5e-3 0.117 3e-3 0.063 0.015 0.091-9e-3 0.105-0.069 0.048-0.21 0.099-0.419 0.146-0.612-0.083 0.029-0.21 0.062-0.314 0.156-0.016 0-0.045-7e-3 -0.067 3e-3 -0.095 0.043-0.19 0.088-0.282 0.138-0.075 0.042-6e-3 0.098-0.01 0.159-0.039-0.024-0.075-0.045-0.113-0.068-0.171 0.128-0.298 0.291-0.404 0.472-0.012 0.02-4e-3 0.06 6e-3 0.086 0.015 0.034 0.041 0.065 0.051 0.113-0.042-0.021-0.084-0.041-0.127-0.062-0.14 0.185-0.134 0.24 0.056 0.492-0.098 0.025-0.148-0.047-0.221-0.105-0.023 0.105-0.045 0.203-0.064 0.301-0.046 0.232-0.045 0.232 0.072 0.425-0.037-0.022-0.073-0.044-0.118-0.072-1e-3 0.056-2e-3 0.11-4e-3 0.173-0.041-0.033-0.077-0.062-0.114-0.09-0.035-0.027-0.071-0.053-0.121-0.09 9e-3 0.055 0.015 0.094 0.022 0.133-0.102-0.141-0.187-0.299-0.401-0.33 0.033 0.072 0.064 0.135 0.093 0.198-3e-3 3e-3 -8e-3 7e-3 -0.012 0.011-0.076-0.078-0.161-0.149-0.225-0.236-0.071-0.098-0.17-0.11-0.288-0.142 0.036 0.102 0.066 0.186 0.095 0.271-4e-3 3e-3 -8e-3 6e-3 -0.013 0.01-0.064-0.085-0.131-0.168-0.191-0.255-0.033-0.048-0.07-0.067-0.137-0.043 0.046 0.068 0.089 0.133 0.131 0.197-2e-3 3e-3 -4e-3 7e-3 -6e-3 0.01-0.075-0.053-0.154-0.102-0.223-0.162-0.058-0.051-0.116-0.065-0.202-0.035 0.07 0.06 0.134 0.114 0.198 0.168-2e-3 5e-3 -4e-3 9e-3 -7e-3 0.014-0.113-0.046-0.227-0.091-0.339-0.139-0.066-0.028-0.12-0.023-0.17 0.03-0.01 0.011-0.036 7e-3 -0.061 0.01 0.02 0.036 0.039 0.071 0.058 0.107-2e-3 2e-3 -4e-3 5e-3 -7e-3 8e-3 -0.023-0.018-0.044-0.039-0.069-0.054-0.021-0.015-0.046-0.024-0.069-0.035-4e-3 0.026-8e-3 0.052-0.011 0.077-0.031-9e-3 -0.077-0.039-0.105-0.027-0.09 0.037-0.174 0.09-0.26 0.137l0.01 0.024c0.19 0.041 0.38 0.079 0.569 0.123 0.644 0.151 1.234 0.416 1.75 0.837 0.048 0.039 0.065 0.108 0.046 0.224-0.048-0.231-0.224-0.309-0.422-0.362 0.016 0.072 0.033 0.143 0.049 0.214-8e-3 7e-3 -0.016 0.015-0.024 0.023-0.147-0.207-0.295-0.411-0.59-0.353 2e-3 0.056 4e-3 0.121 6e-3 0.198-0.016-0.012-0.019-0.013-0.02-0.015-0.103-0.255-0.043-0.206-0.334-0.206-0.049 0-0.098 8e-3 -0.152 0.013 0.013 0.071 0.027 0.138 0.037 0.205 3e-3 0.017-9e-3 0.037-0.014 0.055-0.016-0.01-0.036-0.017-0.047-0.031-0.055-0.066-0.107-0.134-0.16-0.201-0.115 0.024-0.23 0.047-0.353 0.073 0.021 0.045 0.037 0.077 0.052 0.109-0.134-0.116-0.25-0.034-0.37 0.024 7e-3 0.02-0.187 0.182-0.412 0.124-0.05-0.013-0.129 0.174-0.175 0.202-0.275 0.164-0.482 0.344-0.47 0.38l1.207-0.166c0.596-0.037 1.198 7e-3 1.803 0.156-0.015 0.03-0.025 0.048-0.036 0.069-0.065-0.062-0.066-0.067-0.147-0.039-0.11 0.038-0.218 0.078-0.323 0.127-0.11 0.052-0.109 0.057-0.058 0.181-0.034-8e-3 -0.064-8e-3 -0.084-0.021-0.05-0.036-0.089-0.028-0.129 0.016-0.109 0.12-0.223 0.236-0.33 0.358-0.055 0.063-0.116 0.133-7e-3 0.224-0.164-0.033-0.177 0.086-0.217 0.175-8e-3 0.017-0.013 0.035-0.023 0.05-0.035 0.051-0.013 0.083 0.034 0.105 0.058 0.027 0.115 0.053 0.172 0.079-0.061 0.017-0.119 0.021-0.178 0.024l-0.096 0.047c-0.01 0.011-0.032 9e-3 -0.037 0.029-0.027 0.114-0.05 0.231-0.083 0.344-0.029 0.098-3e-3 0.163 0.09 0.203 3e-3 2e-3 4e-3 9e-3 7e-3 0.02-0.021 9e-3 -0.042 0.018-0.064 0.025-0.021 7e-3 -0.043 0.013-0.068 0.019-0.038 0.593 0.073 1.148 0.35 1.673 0.063-0.263 0.125-0.518 0.183-0.772l-8e-3 -0.272 0.172-0.214c0.044-0.115 0.088-0.23 0.134-0.344 0.042-0.103 0.045-0.101-0.056-0.143-3e-3 -1e-3 -3e-3 -9e-3 -6e-3 -0.022 0.032-9e-3 0.064-0.026 0.095-0.025 0.092 2e-3 0.107-0.074 0.122-0.13 7e-3 -0.026-0.047-0.071-0.078-0.104-0.014-0.015-0.038-0.021-0.057-0.031 0.055-0.019 0.111-0.029 0.163-0.02 0.054 9e-3 0.079-0.01 0.106-0.054 0.07-0.111 0.142-0.22 0.219-0.327 0.099-0.138 0.101-0.136-0.038-0.231-3e-3 -2e-3 -2e-3 -8e-3 -6e-3 -0.023 0.055 2e-3 0.106 7e-3 0.157 5e-3 0.032-1e-3 0.075-4e-3 0.094-0.024 0.114-0.126 0.223-0.257 0.337-0.391-0.038-0.034-0.07-0.062-0.115-0.102 0.059 3e-3 0.105 5e-3 0.151 6e-3 0.027 1e-3 0.067 0.014 0.082 0 0.073-0.066 0.128-0.037 0.188 0.018 0.027 0.024 0.065 0.035 0.094 0.057 0.07 0.05 0.133 0.051 0.194-0.014 0.019-0.019 0.046-0.031 0.069-0.046 6e-3 4e-3 0.012 7e-3 0.018 0.011-0.013 0.047-0.027 0.095-0.034 0.119 8e-3 0.07 0.022 0.122 0.016 0.172-9e-3 0.09-0.029 0.178-0.045 0.267-4e-3 0.02-5e-3 0.041-0.01 0.061-0.022 0.089-0.058 0.178-0.064 0.269-0.013 0.175 8e-3 0.352-0.025 0.528-0.011 0.06 9e-3 0.127 1e-3 0.188-0.015 0.116-0.055 0.23-0.057 0.345-2e-3 0.219 0.016 0.438 0.024 0.656 2e-3 0.032-5e-3 0.062-5e-3 0.094 1e-3 0.174-0.034 0.349 0.019 0.522 9e-3 0.027 0.159 5.665 0.436 5.888l0.618 0.253c-4e-3 -0.043-0.51-5.889-0.514-5.932-0.014-0.15-0.036-0.298-0.052-0.447-4e-3 -0.042 8e-3 -0.084 7e-3 -0.126-6e-3 -0.169-5e-3 -0.338-0.022-0.505-0.022-0.201-9e-3 -0.399 4e-3 -0.599 0.01-0.159-3e-3 -0.32-2e-3 -0.481 1e-3 -0.057 0.015-0.114 0.022-0.172 0.014-0.114 0.03-0.228 0.042-0.342 9e-3 -0.085 0.014-0.171 0.019-0.256 2e-3 -0.063 0.022-0.112 0.079-0.149 0.116-0.076 0.228-0.158 0.343-0.236 0.017-0.013 0.04-0.018 0.062-0.026-0.113 0.114-0.224 0.226-0.336 0.34 0.124 0.103 0.135 0.101 0.25 0.029 0.085-0.053 0.175-0.097 0.272-0.129-0.087 0.085-0.175 0.17-0.261 0.253 0.01 0.016 0.013 0.021 0.016 0.024 0.133 0.115 0.27 0.159 0.422 0.035 9e-3 -7e-3 0.023-8e-3 0.045 0-0.028 0.025-0.057 0.048-0.082 0.074-0.026 0.026-0.048 0.055-0.071 0.082 0.075 0.113 0.149 0 0.226 4e-3 -0.034 0.029-0.068 0.057-0.11 0.093 0.134 0.12 0.264 0.236 0.398 0.355 0.028-0.022 0.053-0.042 0.099-0.077-0.059 0.1-0.026 0.159 0.037 0.21 0.069 0.057 0.136 0.115 0.225 0.191 0.02-0.171 0.039-0.318 0.052-0.465 2e-3 -0.018-0.023-0.042-0.041-0.057-0.025-0.021-0.054-0.037-0.076-0.067 0.04 1e-3 0.081 2e-3 0.136 3e-3 -0.013-0.174-0.026-0.344-0.04-0.524-0.116 0.012-0.222 0.024-0.328 0.036-1e-3 -4e-3 -3e-3 -6e-3 -4e-3 -0.01 0.102-0.04 0.205-0.081 0.306-0.121 8e-3 -0.084-0.044-0.077-0.096-0.068-0.046 6e-3 -0.092 0.015-0.142 0.01 0.07-0.028 0.139-0.056 0.224-0.09-0.068-0.16-0.135-0.319-0.206-0.477-6e-3 -0.015-0.044-0.022-0.067-0.023-0.138-5e-3 -0.276-7e-3 -0.417-0.024 0.131-0.031 0.262-0.062 0.405-0.096-0.054-0.076-0.101-0.141-0.148-0.207 0.147-0.036 0.283-8e-3 0.409 0.067 0.047 0.029 0.084 0.023 0.127-9e-3 0.042-0.03 0.091-0.05 0.147-0.064l-0.143 0.142c0.044 0.027 0.079 0.048 0.104 0.064 0.123-0.081 0.24-0.157 0.357-0.233 7e-3 7e-3 0.013 0.014 0.018 0.022-0.085 0.088-0.169 0.175-0.254 0.263 0.098 0.092 0.123 0.093 0.217 0.046 0.079-0.038 0.162-0.069 0.25-0.088-0.064 0.06-0.127 0.121-0.191 0.181-0.036 0.033-0.032 0.06 7e-3 0.088 0.061 0.045 0.118 0.096 0.182 0.138 0.017 0.011 0.052 7e-3 0.074-2e-3 0.078-0.033 0.153-0.071 0.23-0.107 3e-3 6e-3 7e-3 0.012 0.01 0.018-0.05 0.049-0.1 0.097-0.151 0.145-0.038 0.037-0.048 0.068 1e-3 0.109 0.074 0.063 0.142 0.132 0.209 0.203 0.036 0.037 0.065 0.039 0.11 0.017 0.043-0.022 0.094-0.03 0.145-0.046-2e-3 0.014 0 0.019-3e-3 0.021-0.143 0.161-0.142 0.115 8e-3 0.282 0.085 0.093 0.171 0.186 0.267 0.29 0.012-0.134 0.03-0.255 0.029-0.375-1e-3 -0.033 1e-3 -0.07-5e-3 -0.103-7e-3 -0.043-0.032-0.082-0.049-0.121 0.01 1e-3 0.029 4e-3 0.058 9e-3 -0.034-0.132 0.018-0.295-0.169-0.364 0.031-0.01 0.063-0.019 0.094-0.029-0.011-0.198-0.061-0.271-0.215-0.322 0.037-9e-3 0.074-0.017 0.124-0.029-0.037-0.076-0.058-0.171-0.116-0.222-0.056-0.048-0.151-0.051-0.224-0.072 0.044-0.014 0.098-0.031 0.152-0.048-0.055-0.112-0.149-0.104-0.332 0.027-5e-3 -6e-3 -0.01-0.011-0.016-0.016 0.066-0.065 0.132-0.131 0.204-0.203-0.013-0.019-0.031-0.046-0.062-0.09 0.189 0.042 0.363 0.082 0.537 0.117 0.044 9e-3 0.091 2e-3 0.132 2e-3 0.033 0.021 0.067 0.049 0.106 0.063 0.131 0.048 0.264 0.089 0.395 0.137s0.259 0.102 0.397 0.157c-7e-3 -0.02-9e-3 -0.037-0.018-0.05-0.28-0.486-0.67-0.861-1.154-1.139-0.017-0.01-0.05-1e-3 -0.071 9e-3 -0.028 0.014-0.05 0.037-0.073 0.055-9e-3 -7e-3 -0.016-0.011-0.016-0.013 0.023-0.111-0.034-0.163-0.132-0.194-0.108-0.033-0.214-0.073-0.32-0.112-0.051-0.018-0.084-6e-3 -0.114 0.039-0.039 0.06-0.085 0.117-0.142 0.169 9e-3 -0.063 0.017-0.126 0.027-0.188 7e-3 -0.05-5e-3 -0.082-0.062-0.084-0.029-1e-3 -0.058-0.011-0.086-0.015-0.091-0.012-0.191-0.053-0.237 0.109-0.053-0.208-0.193-0.128-0.297-0.124-0.122 6e-3 -0.242 0.039-0.374 0.063 0.509-0.529 1.097-0.936 1.746-1.26-1e-3 -6e-3 -3e-3 -0.013-4e-3 -0.02"/>
<path d="m10.906 10.46c0.012-0.129 0.032-0.258 0.045-0.387 3e-3 -0.035-6e-3 -0.072-5e-3 -0.109 4e-3 -0.146 3e-3 -0.292 0.019-0.437 0.018-0.174 7e-3 -0.346-4e-3 -0.519-0.01-0.138 2e-3 -0.277 1e-3 -0.416-1e-3 -0.05-0.013-0.1-0.018-0.15-0.013-0.098-0.027-0.197-0.037-0.295-8e-3 -0.074-0.012-0.148-0.016-0.223-3e-3 -0.054-0.02-0.097-0.069-0.129l0.411-0.053c8e-3 0.077 0.026 0.154 0.039 0.231 4e-3 0.018 5e-3 0.036 9e-3 0.053 0.019 0.078 0.05 0.154 0.056 0.232 0.01 0.153-7e-3 0.306 0.021 0.458 0.01 0.053-8e-3 0.11-1e-3 0.163 0.013 0.101 0.048 0.2 0.049 0.299 2e-3 0.189-0.013 0.379-0.021 0.569 0 0.026 5e-3 0.053 5e-3 0.08-1e-3 0.151 0.03 0.303-0.017 0.452-7e-3 0.024-0.137 4.907-0.377 5.1l-0.535 0.22c3e-3 -0.038 0.441-5.101 0.445-5.139"/>
</g>
<g transform="translate(0 59)" fill-rule="nonzero">
<polygon points="0 37 129 37 129 1 0 1" fill="#E6E7E7"/>
<polygon points="0 3.685 129 3.685 129 0.807 0 0.807" fill="#E6E7E7"/>
<polygon points="29.367 22.89 29.367 27.89 0 27.89 0 22.89" fill="#FEFEFE"/>
<polygon points="0.010019 18.5 15.692 0.8069 14.136 0.8069 0.010019 14.5" fill="#FEFEFE"/>
<polygon points="129 9 122.57 0.8065 121.31 0.8065 129 11.8" fill="#FEFEFE"/>
<polygon points="103.03 15.974 103.03 13.448 129 13.448 129 15.974" fill="#FEFEFE"/>
<polygon points="60.697 13.39 57 37 71.812 37 68.04 13.39" fill="#FEFEFE"/>
<path d="m22.804 16.272c4.8614 6.4724 5.5379 13.721 3.8958 20.728 0 0.0020011 11 0 11 0-0.49177-7.9826-3.8112-14.647-10.135-21.698-1.561-1.741-2.173-3.631-1.818-5.618 0.666-3.721 4.592-7.131 7.567-8.877h-2.203c-3.549 2.038-8.571 5.474-9.494 9.125-0.594 2.35-0.094 4.634 1.187 6.34z" fill="#FEFEFE"/>
<path d="m100.5 37c-1.3005-4.5985-1.2674-8.8835 0.613-12.424 5.419-10.201 2.19-17.611-1.751-23.77h-1.683c3.142 6.195 4.598 13.702-1.469 21.887-3.053 4.1168-5.239 8.1757-5.61 14.306h9.9z" fill="#FEFEFE"/>
</g>
<g transform="translate(32 15.685)">
<polygon points="16.867 56.809 47.867 56.809 47.867 37.272 16.867 37.272" fill="#C3C3C3" fill-rule="nonzero"/>
<polygon points="16.893 40.77 47.842 40.77 47.842 37.23 16.893 37.23" fill="#A7A6A6" fill-rule="nonzero"/>
<path d="m54.837 56.716c0 2.123-10.061 3.844-22.47 3.844s-22.469-1.721-22.469-3.844 10.06-3.844 22.469-3.844 22.47 1.721 22.47 3.844" fill="#010202" fill-rule="nonzero" opacity=".078069"/>
<polygon points="20.758 49.725 27.977 49.725 27.977 41.418 20.758 41.418" fill="#B7E1F7" fill-rule="nonzero"/>
<polygon points="36.758 49.743 43.977 49.743 43.977 41.422 36.758 41.422" fill="#F6F3AB" fill-rule="nonzero"/>
<polygon points="35.47 56.808 50.061 56.808 50.061 54.057 35.47 54.057" fill="#A7A6A6" fill-rule="nonzero"/>
<polygon points="50.064 54.064 36.054 54.064 36.054 52.892 48.856 52.892" fill="#757575" fill-rule="nonzero"/>
<polygon points="14.661 56.808 29.273 56.808 29.273 54.079 14.661 54.079" fill="#A7A6A6" fill-rule="nonzero"/>
<polygon points="14.678 54.064 28.688 54.064 28.688 52.892 15.886 52.892" fill="#757575" fill-rule="nonzero"/>
<polygon points="28.68 56.815 36.055 56.815 36.055 40.765 28.68 40.765" fill="#515151" fill-rule="nonzero"/>
<path d="m35.442 50.096c0 0.395-0.32 0.715-0.715 0.715-0.394 0-0.714-0.32-0.714-0.715s0.32-0.714 0.714-0.714c0.395 0 0.715 0.319 0.715 0.714" fill="#F1E116" fill-rule="nonzero"/>
<path d="m35.132 48.299c0 0.219-0.178 0.396-0.396 0.396s-0.396-0.177-0.396-0.396 0.178-0.396 0.396-0.396 0.396 0.177 0.396 0.396" fill="#F1E116" fill-rule="nonzero"/>
<path d="m32.356 47.249h-2.548c-0.211 0-0.295-0.084-0.295-0.296v-5.117c0-0.211 0.084-0.295 0.296-0.295h5.116c0.211 0 0.296 0.084 0.296 0.296v5.117c0 0.211-0.085 0.295-0.297 0.295h-2.568" fill="#E4E4E4" fill-rule="nonzero"/>
<path d="m32.357 47.052h-2.371c-0.197 0-0.275-0.079-0.275-0.276v-4.762c0-0.196 0.079-0.274 0.276-0.274 1.587-1e-3 3.174-1e-3 4.762 0 0.196 0 0.275 0.078 0.275 0.275v4.762c0 0.196-0.08 0.275-0.276 0.275h-2.391" fill="#FEFEFE" fill-rule="nonzero"/>
<path d="m30.379 44.358c0-0.214 3e-3 -0.428-2e-3 -0.643-1e-3 -0.068 0.02-0.082 0.085-0.081 0.355 3e-3 0.711-2e-3 1.067 4e-3 0.089 2e-3 0.101-0.026 0.1-0.105-4e-3 -0.356 0-0.712-2e-3 -1.068-1e-3 -0.059 0.01-0.08 0.075-0.08 0.429 3e-3 0.857 4e-3 1.286 0 0.072-1e-3 0.079 0.026 0.079 0.087-3e-3 0.359 0 0.718-3e-3 1.077-1e-3 0.071 0.016 0.089 0.087 0.088 0.359-4e-3 0.718 1e-3 1.078-3e-3 0.072-1e-3 0.088 0.018 0.087 0.088-3e-3 0.428-4e-3 0.857 1e-3 1.286 0 0.073-0.022 0.087-0.09 0.086-0.353-4e-3 -0.706 2e-3 -1.059-4e-3 -0.091-2e-3 -0.105 0.028-0.104 0.109 4e-3 0.353 0 0.706 3e-3 1.059 0 0.063-0.012 0.085-0.081 0.085-0.425-4e-3 -0.851-4e-3 -1.276-1e-3 -0.065 1e-3 -0.085-0.013-0.084-0.081 3e-3 -0.362 0-0.725 3e-3 -1.088 1e-3 -0.065-0.016-0.083-0.083-0.083-0.362 4e-3 -0.724 0-1.086 4e-3 -0.068 1e-3 -0.084-0.018-0.083-0.084 4e-3 -0.217 2e-3 -0.434 2e-3 -0.652" fill="#44A9A4" fill-rule="nonzero"/>
<path d="m30.554 44.359c0-0.195 3e-3 -0.303-1e-3 -0.498-2e-3 -0.062 0.018-0.074 0.076-0.074 0.324 3e-3 0.649-2e-3 0.973 4e-3 0.08 1e-3 0.18-0.112 0.179-0.183-4e-3 -0.325 0-0.649-2e-3 -0.974-1e-3 -0.053 9e-3 -0.073 0.068-0.072 0.391 3e-3 0.605 3e-3 0.996 0 0.065-1e-3 0.071 0.023 0.071 0.078-2e-3 0.327 1e-3 0.655-3e-3 0.982-1e-3 0.064 0.103 0.169 0.168 0.168 0.327-3e-3 0.654 1e-3 0.981-3e-3 0.066-1e-3 0.08 0.017 0.079 0.08-2e-3 0.39-2e-3 0.605 1e-3 0.995 0 0.067-0.019 0.08-0.081 0.079-0.322-3e-3 -0.643 1e-3 -0.964-4e-3 -0.083-1e-3 -0.185 0.113-0.184 0.188 4e-3 0.321 0 0.643 3e-3 0.964 1e-3 0.058-0.01 0.078-0.073 0.077-0.388-3e-3 -0.599-3e-3 -0.987 0-0.059 1e-3 -0.077-0.012-0.076-0.074 3e-3 -0.33 0-0.66 3e-3 -0.99 1e-3 -0.06-0.102-0.165-0.164-0.164-0.329 3e-3 -0.66 0-0.99 3e-3 -0.061 1e-3 -0.075-0.017-0.074-0.076 3e-3 -0.198 1e-3 -0.308 1e-3 -0.506" fill="#4CC1BE" fill-rule="nonzero"/>
<mask id="ba" fill="white">
<use xlink:href="#ac"/>
</mask>
<polygon points="36.76 49.745 44.011 49.745 44.011 41.415 36.76 41.415" fill="#B7E1F7" fill-rule="nonzero" mask="url(#ba)"/>
<mask id="ap" fill="white">
<use xlink:href="#r"/>
</mask>
<polygon points="16.852 52.894 28.682 52.894 28.682 50.434 16.852 50.434" fill="#959494" fill-rule="nonzero" mask="url(#ap)"/>
<mask id="ae" fill="white">
<use xlink:href="#g"/>
</mask>
<path d="m26.234 51.924c-0.308 0-0.592 0.105-0.826 0.282-0.235-0.237-0.549-0.386-0.896-0.386-0.4 0-0.754 0.197-0.994 0.501-0.233-0.278-0.566-0.457-0.941-0.457-0.397 0-0.746 0.201-0.979 0.507-0.254-0.316-0.626-0.521-1.045-0.521-0.521 0-0.969 0.312-1.206 0.769-0.121-0.273-0.309-0.607-0.827-0.592-0.482 0.013-0.69 0.334-0.817 0.551-0.159-0.162-0.324-0.22-0.541-0.221-0.652-4e-3 -1.096 0.603-1.096 1.304l11.606 2e-3c0-0.856-0.643-1.739-1.438-1.739" fill="#55BB7A" fill-rule="nonzero" mask="url(#ae)"/>
<mask id="ad" fill="white">
<use xlink:href="#b"/>
</mask>
<polygon points="16.853 50.437 20.007 50.437 20.007 37.301 16.853 37.301" fill="#A7A6A6" fill-rule="nonzero" mask="url(#ad)"/>
<mask id="bf" fill="white">
<use xlink:href="#a"/>
</mask>
<polygon points="36.05 52.894 47.86 52.894 47.86 50.434 36.05 50.434" fill="#959494" fill-rule="nonzero" mask="url(#bf)"/>
<mask id="be" fill="white">
<use xlink:href="#ab"/>
</mask>
<polygon points="44.697 50.437 47.851 50.437 47.851 37.291 44.697 37.291" fill="#A7A6A6" fill-rule="nonzero" mask="url(#be)"/>
<mask id="bd" fill="white">
<use xlink:href="#aa"/>
</mask>
<polygon points="20.758 41.419 20.758 44.236 24.613 49.726 27.413 49.726 21.578 41.419" fill="#A0D2ED" fill-rule="nonzero" mask="url(#bd)"/>
<mask id="bc" fill="white">
<use xlink:href="#z"/>
</mask>
<polygon points="27.977 47.475 23.722 41.418 22.323 41.418 27.977 49.467" fill="#D9EFFB" fill-rule="nonzero" mask="url(#bc)"/>
<mask id="bb" fill="white">
<use xlink:href="#y"/>
</mask>
<polygon points="36.76 41.415 36.76 44.245 40.615 49.755 43.414 49.755 37.579 41.415" fill="#A0D2ED" fill-rule="nonzero" mask="url(#bb)"/>
<mask id="az" fill="white">
<use xlink:href="#x"/>
</mask>
<polygon points="44.01 47.478 39.75 41.415 38.35 41.415 44.01 49.473" fill="#D9EFFB" fill-rule="nonzero" mask="url(#az)"/>
<mask id="ay" fill="white">
<use xlink:href="#w"/>
</mask>
<path d="m17.092 52.83c0.22 1e-3 0.387 0.062 0.549 0.226 0.128-0.22 0.339-0.547 0.828-0.561 0.526-0.015 0.717 0.324 0.84 0.603 0.24-0.464 0.695-0.782 1.223-0.782 0.426 0 0.803 0.207 1.06 0.53 0.237-0.312 0.591-0.515 0.994-0.515 0.381 0 0.719 0.181 0.955 0.464 0.243-0.309 0.602-0.509 1.008-0.509 0.353 0 0.672 0.15 0.91 0.392 0.237-0.18 0.526-0.287 0.838-0.287 0.636 0 1.17 0.559 1.37 1.22-0.025-0.84-0.653-1.687-1.433-1.687-0.308 0-0.592 0.105-0.826 0.282-0.234-0.237-0.548-0.386-0.896-0.386-0.4 0-0.754 0.197-0.994 0.501-0.233-0.278-0.566-0.457-0.941-0.457-0.397 0-0.746 0.2-0.979 0.507-0.254-0.316-0.626-0.521-1.045-0.521-0.521 0-0.969 0.312-1.206 0.769-0.121-0.273-0.309-0.607-0.827-0.593-0.482 0.014-0.69 0.335-0.817 0.552-0.159-0.162-0.324-0.221-0.541-0.222-0.641-4e-3 -1.079 0.584-1.093 1.271 0.162-0.462 0.534-0.799 1.023-0.797" fill="#55BB7A" fill-rule="nonzero" mask="url(#ay)"/>
<mask id="ax" fill="white">
<use xlink:href="#v"/>
</mask>
<path d="m27.672 53.663c0-0.017-4e-3 -0.034-5e-3 -0.052-0.2-0.661-0.734-1.22-1.37-1.22-0.312 0-0.601 0.107-0.838 0.287-0.238-0.242-0.557-0.392-0.91-0.392-0.406 0-0.765 0.2-1.008 0.509-0.236-0.283-0.575-0.464-0.955-0.464-0.403 0-0.757 0.203-0.994 0.515-0.257-0.323-0.634-0.53-1.06-0.53-0.528 0-0.983 0.318-1.223 0.782-0.123-0.279-0.314-0.618-0.84-0.603-0.489 0.014-0.7 0.341-0.828 0.561-0.162-0.164-0.329-0.225-0.549-0.226-0.489-2e-3 -0.861 0.335-1.024 0.797 0 0.012-2e-3 0.022-2e-3 0.034l11.606 2e-3z" fill="#4DA76C" fill-rule="nonzero" mask="url(#ax)"/>
<mask id="aw" fill="white">
<use xlink:href="#u"/>
</mask>
<path d="m16.767 37.245v1.425c0 0.662 0.538 1.199 1.2 1.199s1.199-0.537 1.2-1.199v-1.425h-2.4z" fill="#2E9E98" fill-rule="nonzero" mask="url(#aw)"/>
<mask id="av" fill="white">
<use xlink:href="#t"/>
</mask>
<path d="m14.367 37.245v1.425c1e-3 0.662 0.538 1.199 1.2 1.199 0.663 0 1.199-0.537 1.2-1.199v-1.425h-2.4z" fill="#D0D2D3" fill-rule="nonzero" mask="url(#av)"/>
<mask id="au" fill="white">
<use xlink:href="#s"/>
</mask>
<path d="m19.166 37.245v1.425c1e-3 0.662 0.538 1.199 1.2 1.199s1.199-0.537 1.2-1.199v-1.425h-2.4z" fill="#D0D2D3" fill-rule="nonzero" mask="url(#au)"/>
<mask id="at" fill="white">
<use xlink:href="#q"/>
</mask>
<path d="m21.567 37.245v1.425c1e-3 0.662 0.538 1.199 1.2 1.199s1.199-0.537 1.2-1.199v-1.425h-2.4z" fill="#2E9E98" fill-rule="nonzero" mask="url(#at)"/>
<mask id="as" fill="white">
<use xlink:href="#p"/>
</mask>
<path d="m23.963 37.245v1.425c1e-3 0.662 0.538 1.199 1.2 1.199s1.199-0.537 1.2-1.199v-1.425h-2.4z" fill="#D0D2D3" fill-rule="nonzero" mask="url(#as)"/>
<mask id="ar" fill="white">
<use xlink:href="#o"/>
</mask>
<path d="m26.367 37.245v1.425c1e-3 0.662 0.538 1.199 1.2 1.199s1.199-0.537 1.2-1.199v-1.425h-2.4z" fill="#2E9E98" fill-rule="nonzero" mask="url(#ar)"/>
<mask id="aq" fill="white">
<use xlink:href="#n"/>
</mask>
<path d="m28.766 37.248v1.425c1e-3 0.662 0.538 1.199 1.2 1.199 0.663 0 1.199-0.537 1.2-1.199v-1.425h-2.4z" fill="#D0D2D3" fill-rule="nonzero" mask="url(#aq)"/>
<mask id="ao" fill="white">
<use xlink:href="#m"/>
</mask>
<path d="m31.166 37.245v1.425c1e-3 0.662 0.538 1.199 1.2 1.199s1.199-0.537 1.2-1.199v-1.425h-2.4z" fill="#2E9E98" fill-rule="nonzero" mask="url(#ao)"/>
<mask id="an" fill="white">
<use xlink:href="#l"/>
</mask>
<path d="m33.565 37.245l1e-3 1.425c0 0.662 0.537 1.199 1.199 1.199 0.663 0 1.199-0.537 1.2-1.199v-1.425h-2.4z" fill="#D0D2D3" fill-rule="nonzero" mask="url(#an)"/>
<mask id="am" fill="white">
<use xlink:href="#k"/>
</mask>
<path d="m35.966 37.245l1e-3 1.425c0 0.662 0.537 1.199 1.199 1.199 0.663 0 1.199-0.537 1.2-1.199v-1.425h-2.4z" fill="#2E9E98" fill-rule="nonzero" mask="url(#am)"/>
<mask id="al" fill="white">
<use xlink:href="#j"/>
</mask>
<path d="m38.362 37.245l1e-3 1.425c0 0.662 0.537 1.199 1.199 1.199 0.663 0 1.199-0.537 1.2-1.199v-1.425h-2.4z" fill="#D0D2D3" fill-rule="nonzero" mask="url(#al)"/>
<mask id="ak" fill="white">
<use xlink:href="#i"/>
</mask>
<path d="m40.767 37.245v1.425c0 0.662 0.537 1.199 1.199 1.199 0.663 0 1.199-0.537 1.2-1.199v-1.425h-2.399z" fill="#2E9E98" fill-rule="nonzero" mask="url(#ak)"/>
<mask id="aj" fill="white">
<use xlink:href="#h"/>
</mask>
<path d="m43.166 37.248v1.425c1e-3 0.662 0.537 1.199 1.2 1.199 0.662 0 1.199-0.537 1.199-1.199l1e-3 -1.425h-2.4z" fill="#D0D2D3" fill-rule="nonzero" mask="url(#aj)"/>
<mask id="ai" fill="white">
<use xlink:href="#f"/>
</mask>
<path d="m45.566 37.245v1.425c1e-3 0.662 0.537 1.199 1.2 1.199 0.662 0 1.199-0.537 1.199-1.199l1e-3 -1.425h-2.4z" fill="#2E9E98" fill-rule="nonzero" mask="url(#ai)"/>
<mask id="ah" fill="white">
<use xlink:href="#e"/>
</mask>
<path d="m47.966 37.248v1.425c1e-3 0.662 0.538 1.199 1.2 1.199s1.199-0.537 1.2-1.199v-1.425h-2.4z" fill="#D0D2D3" fill-rule="nonzero" mask="url(#ah)"/>
<mask id="ag" fill="white">
<use xlink:href="#d"/>
</mask>
<path d="m47.583 52.83c-0.22 1e-3 -0.387 0.062-0.549 0.226-0.128-0.22-0.339-0.547-0.828-0.561-0.526-0.015-0.717 0.324-0.84 0.603-0.24-0.464-0.695-0.782-1.223-0.782-0.425 0-0.802 0.207-1.06 0.53-0.236-0.312-0.592-0.515-0.994-0.515-0.38 0-0.719 0.181-0.954 0.464-0.244-0.309-0.604-0.509-1.009-0.509-0.353 0-0.672 0.15-0.909 0.392-0.238-0.18-0.527-0.287-0.838-0.287-0.637 0-1.171 0.559-1.371 1.22 0.025-0.84 0.653-1.687 1.433-1.687 0.308 0 0.592 0.105 0.826 0.282 0.235-0.237 0.548-0.386 0.896-0.386 0.4 0 0.754 0.197 0.994 0.501 0.233-0.278 0.566-0.457 0.941-0.457 0.397 0 0.747 0.2 0.979 0.507 0.254-0.316 0.625-0.521 1.045-0.521 0.521 0 0.969 0.312 1.206 0.769 0.121-0.273 0.309-0.607 0.827-0.593 0.482 0.014 0.69 0.335 0.817 0.552 0.159-0.162 0.324-0.221 0.541-0.222 0.64-3e-3 1.079 0.584 1.093 1.271-0.162-0.462-0.534-0.799-1.023-0.797" fill="#55BB7A" fill-rule="nonzero" mask="url(#ag)"/>
<mask id="af" fill="white">
<use xlink:href="#c"/>
</mask>
<path d="m37.003 53.663c0-0.017 5e-3 -0.034 5e-3 -0.052 0.2-0.661 0.734-1.22 1.371-1.22 0.311 0 0.6 0.107 0.838 0.287 0.237-0.242 0.557-0.392 0.909-0.392 0.405 0 0.765 0.2 1.009 0.509 0.235-0.283 0.574-0.464 0.954-0.464 0.402 0 0.758 0.203 0.994 0.515 0.258-0.323 0.635-0.53 1.06-0.53 0.528 0 0.983 0.318 1.223 0.782 0.123-0.279 0.314-0.618 0.84-0.603 0.489 0.014 0.7 0.341 0.828 0.561 0.162-0.164 0.329-0.225 0.549-0.226 0.489-2e-3 0.861 0.335 1.024 0.797 0 0.012 2e-3 0.022 2e-3 0.034l-11.606 2e-3z" fill="#4DA76C" fill-rule="nonzero" mask="url(#af)"/>
</g>
<g transform="translate(46 43)" fill-rule="nonzero">
<polygon points="5.167 9.9318 2.767 9.9318 5.232 0.3488 7.254 0.3488" fill="#00CDBE"/>
<polygon points="7.5674 9.9318 5.1674 9.9318 7.2544 0.3488 9.2764 0.3488" fill="#FEFEFE"/>
<polygon points="9.9673 9.9318 7.5673 9.9318 9.2763 0.3488 11.298 0.3488" fill="#00CDBE"/>
<polygon points="12.367 9.9318 9.9672 9.9318 11.298 0.3488 13.32 0.3488" fill="#FEFEFE"/>
<polygon points="14.767 9.9318 12.367 9.9318 13.32 0.3488 15.341 0.3488" fill="#00CDBE"/>
<polygon points="17.167 9.9318 14.767 9.9318 15.341 0.3488 17.363 0.3488" fill="#FEFEFE"/>
<polygon points="2.7671 9.9318 0.3671 9.9318 3.2111 0.3488 5.2321 0.3488" fill="#FEFEFE"/>
<polygon points="19.567 9.9318 17.167 9.9318 17.363 0.3488 19.384 0.3488" fill="#00CDBE"/>
<polygon points="21.967 9.9318 19.568 9.9318 19.385 0.3488 21.407 0.3488" fill="#FEFEFE"/>
<polygon points="24.367 9.9318 21.967 9.9318 21.407 0.3488 23.429 0.3488" fill="#00CDBE"/>
<polygon points="26.768 9.9318 24.368 9.9318 23.429 0.3488 25.451 0.3488" fill="#FEFEFE"/>
<polygon points="29.167 9.9318 26.768 9.9318 25.45 0.3488 27.473 0.3488" fill="#00CDBE"/>
<polygon points="31.567 9.9318 29.167 9.9318 27.472 0.3488 29.494 0.3488" fill="#FEFEFE"/>
<polygon points="33.967 9.9318 31.568 9.9318 29.494 0.3488 31.516 0.3488" fill="#00CDBE"/>
<polygon points="36.367 9.9318 33.967 9.9318 31.515 0.3488 33.538 0.3488" fill="#FEFEFE"/>
</g>
<g transform="translate(57 19.685)" fill-rule="nonzero">
<path d="m12.13 2.9113c2.639 2.628 2.317 6.901 0.015 9.504-1.225 1.384-4.771 4.708-4.771 4.708s-3.557-3.324-4.769-4.723c-2.311-2.667-2.645-6.883-0.015-9.504 2.631-2.62 6.902-2.613 9.54 0.015" fill="#00CDBE"/>
<path d="m13.336 28.528c0 0.673-2.672 1.219-5.969 1.219-3.296 0-5.969-0.546-5.969-1.219s2.673-1.219 5.969-1.219c3.297 0 5.969 0.546 5.969 1.219" fill="#231F20" opacity=".10033"/>
<path d="m7.5586 11.214c-0.041 4e-3 -0.109 0.023-0.15 0.028-0.086-0.179-0.152-0.44-0.178-0.706-0.019-0.208-0.027-0.402 0-0.664-0.686 0.42-1.406 0.704-2.504 0.705 0.142-0.403 1.213-0.781 1.587-0.913-0.228-0.023-0.456-0.046-0.684-0.069-0.498-0.11-1.825-0.53-2.011-0.858 0.988-0.143 1.97-0.084 2.736 0.207-0.262-0.245-0.582-0.438-0.807-0.719-0.544-0.682-0.965-1.255-1.313-2.256l0.013-0.014c0.821 0.395 1.567 0.976 2.107 1.661 0.119 0.15 0.288 0.286 0.37 0.471h0.013c-0.132-1.418 0.011-2.363 0.356-3.35 0.075-0.213 0.12-0.468 0.246-0.636h0.014c0.106 0.375 0.26 0.759 0.355 1.162 0.101 0.427 0.167 0.882 0.192 1.343 0.028 0.378 0 0.71 0 1.065-0.019 0.124-0.033 0.355-0.055 0.471 0-0.01 0.028-0.019 0.028-0.028 0.155-0.198 0.31-0.397 0.465-0.595 0.385-0.485 1.425-1.354 2.052-1.564-0.118 0.723-1.02 2.071-1.491 2.464-0.237 0.198-0.475 0.396-0.712 0.595 0.909-0.343 1.823-0.43 2.928-0.277v0.014c-9e-3 5e-3 -0.018 9e-3 -0.028 0.013-0.386 0.4-1.335 0.693-1.983 0.831l-0.753 0.069v0.014c0.473 0.048 1.36 0.575 1.588 0.886-0.734 0.105-1.495-0.164-1.998-0.388-0.182-0.101-0.365-0.203-0.547-0.304-0.055 0.616 0.044 0.945 0.164 1.342" fill="#FEFEFE"/>
</g>
</g>
</svg>
